<svg width="334" height="76" viewBox="0 0 334 76" fill="none" xmlns="http://www.w3.org/2000/svg">
<path d="M0 0H17.0232L33.732 52.4188L50.6632 0H67.5791L42.8264 74.6378H24.3386L0 0Z" fill="#FFD200"/>
<path d="M88.9501 0V12.5756H74.12V0H88.9501ZM88.9501 20.5489V74.6378H74.12V20.5489H88.9501Z" fill="#FFD200"/>
<path d="M151.162 53.7734C150.257 60.7615 147.527 66.2181 142.964 70.1278C138.402 74.0452 132.536 76 125.366 76C117.077 76 110.428 73.4526 105.414 68.35C100.406 63.2551 97.8988 56.467 97.8988 48.0166C97.8988 39.5662 100.422 32.2548 105.467 26.9444C110.513 21.634 117.215 18.9788 125.573 18.9788C132.75 18.9788 138.593 20.8105 143.118 24.4816C147.642 28.1527 150.218 33.1322 150.847 39.4199H136.331C135.212 33.2014 131.661 30.0921 125.673 30.0921C121.632 30.0921 118.48 31.6468 116.218 34.7561C113.956 37.8653 112.821 42.1829 112.821 47.7011C112.821 53.2192 113.917 57.2597 116.111 60.2305C118.304 63.2012 121.386 64.6866 125.351 64.6866C131.83 64.6866 135.657 61.054 136.845 53.7811H151.154L151.162 53.7734Z" fill="#FFD200"/>
<path d="M168.185 63.3782V30.6078H156.46V17.1548H168.185V4.19443H182.908V17.1548H193.881V30.6078H182.908V56.0822" fill="#FFD200"/>
<path d="M216.893 0V12.5756H202.062V0H216.893ZM216.893 20.5489V74.6378H202.062V20.5489H216.893Z" fill="#FFD200"/>
<path d="M294.18 74.6378V42.3522C294.18 38.7889 293.62 36.0413 292.508 34.1173C291.396 32.2009 289.096 31.2389 285.614 31.2389C278.721 31.2389 275.278 35.5718 275.278 44.2378V74.6378H260.447V41.7211C260.447 38.3656 259.888 35.7643 258.776 33.9095C257.664 32.0547 255.502 31.1311 252.296 31.1311C245.119 31.1311 241.538 35.8489 241.538 45.2845V74.6378H226.708V20.5489H240.809V27.9911C245.058 22.0496 250.77 19.0789 257.94 19.0789C265.11 19.0789 270.47 22.0496 273.192 27.9911C277.509 22.0496 283.39 19.0789 290.844 19.0789C296.764 19.0789 301.303 20.8028 304.47 24.2661C307.637 27.7217 309.224 32.3933 309.224 38.2578V74.6378H294.18Z" fill="#FFD200"/>
<path d="M334 58.2833V74.6378H317.498V58.2833H334Z" fill="#FFD200"/>
</svg>
